Coordinates
version=1
nRows=5
nColumns=42
inDegrees=yes

Units are S.I. units (second, meters, Newtons, ...)
If the header above contains a line with 'inDegrees', this indicates whether rotational values are in degrees (yes) or radians (no).

endheader
time	pelvis_tilt	pelvis_list	pelvis_rotation	pelvis_tx	pelvis_ty	pelvis_tz	hip_flexion_r	hip_adduction_r	hip_rotation_r	knee_angle_r	knee_adduction_r	knee_angle_r_beta	ankle_angle_r	subtalar_angle_r	mtp_angle_r	hip_flexion_l	hip_adduction_l	hip_rotation_l	knee_angle_l	knee_adduction_l	knee_angle_l_beta	ankle_angle_l	subtalar_angle_l	mtp_angle_l	lumbar_extension	lumbar_bending	lumbar_rotation	arm_flex_r	arm_add_r	arm_rot_r	elbow_flex_r	pro_sup_r	wrist_flex_r	wrist_dev_r	arm_flex_l	arm_add_l	arm_rot_l	elbow_flex_l	pro_sup_l	wrist_flex_l	wrist_dev_l
      1.20000000	     -2.07104982	     -0.01425631	     -6.19262722	      0.00110943	      0.84491604	     -0.34990006	    -13.72337233	     -1.76185593	      2.96366582	     18.01039554	      7.67370105	      0.31434070	      7.16758566	     -1.40004446	     -7.54321701	     23.11767737	     -4.60550608	     -8.48617393	     11.67139582	      9.16501454	      0.20370429	      6.67732932	     -4.82474669	     -7.54321701	     -5.33289927	     -2.97600287	     12.63928362	     12.18910477	    -18.51658403	      8.69921896	     41.17696952	     90.00000001	      0.00000000	      0.00000000	     -5.92818003	    -11.72931174	    -22.12144020	     33.45411017	     90.00000001	      0.00000000	      0.00000000
      1.21000000	     -1.88025263	      0.27840557	     -6.17975890	      0.01419665	      0.84557102	     -0.35070352	    -13.34124714	     -2.37371079	      2.75894378	     20.61878519	      7.98868069	      0.35986569	      5.19731806	     -2.19379202	     -7.54238393	     22.50829431	     -4.04967167	     -7.89216884	     12.49962104	      9.18677021	      0.21815954	      6.50883369	     -5.09346483	     -7.54238393	     -5.41582552	     -3.36276484	     12.56732072	     11.85348196	    -18.36722586	      8.42850907	     41.05937413	     90.00000001	      0.00000000	      0.00000000	     -5.96696083	    -11.86191174	    -22.18984975	     33.35068872	     90.00000001	      0.00000000	      0.00000000
      1.22000000	     -1.87770627	      0.82968675	     -6.19002464	      0.02733522	      0.84616331	     -0.35136012	    -12.42411531	     -3.12801659	      2.09227779	     23.80257899	      7.93014206	      0.41543337	      2.90032630	     -3.60359056	     -7.54129100	     22.02772621	     -3.24349395	     -7.30969479	     13.20009390	      9.18746452	      0.23038510	      6.11213392	     -5.70689484	     -7.54129100	     -5.23526169	     -4.05662507	     12.48955019	     11.39517848	    -18.08018465	      8.07418154	     40.89931230	     90.00000001	      0.00000000	      0.00000000	     -5.97193760	    -12.08495071	    -22.27477912	     33.17470714	     90.00000001	      0.00000000	      0.00000000
      1.23000000	     -2.06154708	      1.40307579	     -6.08767869	      0.04026880	      0.84662952	     -0.35253808	    -11.10488039	     -4.01013974	      1.51283491	     27.26527470	      8.09997114	      0.47586881	      0.66546109	     -5.08131707	     -7.53955963	     21.69468795	     -2.35397940	     -6.19993047	     13.70008740	      9.25030178	      0.23911163	      5.33067396	     -7.04899337	     -7.53955963	     -4.86695710	     -4.67684276	     12.27311200	     10.90576209	    -17.79066122	      7.61037960	     40.65912281	     90.00000001	      0.00000000	      0.00000000	     -5.98280837	    -12.24563653	    -22.29290896	     32.98615818	     90.00000001	      0.00000000	      0.00000000
      1.24000000	     -2.08489317	      1.91142631	     -5.97521720	      0.05316179	      0.84742280	     -0.35338056	     -9.82804369	     -4.73811126	      0.81611720	     30.85400187	      7.99949445	      0.53850392	     -1.81746019	     -6.67483436	     -7.53672915	     21.00773026	     -1.59716657	     -4.81949221	     13.85319713	      9.51984534	      0.24178390	      4.47571734	     -9.17494109	     -7.53672915	     -4.70503591	     -5.29495609	     12.02992570	     10.45152722	    -17.47410561	      7.21824695	     40.35297194	     90.00000001	      0.00000000	      0.00000000	     -5.90929864	    -12.47080014	    -22.25489276	     32.86594462	     90.00000001	      0.00000000	      0.00000000
